<svg width="24" height="24" viewBox="0 0 24 24" fill="none" xmlns="http://www.w3.org/2000/svg">
<path d="M19.3505 23.9969C18.1891 23.9969 16.9599 23.711 15.6879 23.4136C14.3804 23.1089 13.0385 22.7927 11.7101 22.7927C10.3808 22.7927 9.07536 23.1162 7.81275 23.4292C5.21762 24.0741 2.76858 24.6845 0.673277 22.1155L0.521973 21.8963L0.561625 21.6459C1.14702 17.7464 3.14319 14.6087 6.17971 12.816L6.56162 12.5906L6.87049 12.9172C7.52341 13.6269 8.31611 14.1938 9.19875 14.5822C10.0814 14.9706 11.0349 15.1722 11.9992 15.1743C13.939 15.1743 15.7933 14.3583 17.1268 12.9172L17.4305 12.5906L17.8176 12.816C20.8573 14.6139 22.8534 17.7496 23.4388 21.6449L23.4785 21.913L23.3136 22.1155C22.8514 22.7229 22.2504 23.2108 21.5609 23.5381C20.8713 23.8655 20.1134 24.0228 19.3505 23.9969ZM11.7227 22.271C13.1094 22.271 14.4848 22.5923 15.8141 22.9054C18.6023 23.5576 21.0117 24.1221 22.9192 21.7816L22.9369 21.7607V21.7357C22.3745 17.9896 20.4681 14.9937 17.5672 13.2783L17.5296 13.2574L17.5014 13.2887C16.8006 14.0462 15.9511 14.651 15.006 15.0654C14.0609 15.4797 13.0405 15.6948 12.0086 15.697C10.9765 15.6951 9.95598 15.4802 9.0107 15.066C8.06541 14.6518 7.21571 14.0471 6.51467 13.2897L6.48336 13.2574L6.44684 13.2783C3.53032 14.9937 1.62284 17.9948 1.06249 21.7357V21.7628L1.08128 21.7837C2.96789 24.0981 5.16232 23.5523 7.70528 22.921C8.98458 22.6028 10.314 22.271 11.7227 22.271ZM11.9971 14.1694C8.17171 14.1694 5.07049 10.9972 5.07049 7.08417C5.07049 3.17113 8.17171 0 11.9971 0C15.8235 0 18.9248 3.17217 18.9248 7.08522C18.9195 10.9962 15.8214 14.1652 11.9971 14.1704V14.1694ZM11.9971 0.52487C9.40197 0.52487 7.06145 2.12348 6.07015 4.5767C5.07571 7.02887 5.62562 9.85252 7.4611 11.7287C8.34738 12.6434 9.48959 13.2686 10.7377 13.5223C11.9858 13.7759 13.2815 13.6461 14.4545 13.1499C16.8524 12.1336 18.4155 9.73983 18.4145 7.08522C18.4114 3.46122 15.5408 0.523826 11.9971 0.518609V0.52487Z" fill="black"/>
</svg>
